<?xml version="1.0" encoding="utf-8"?>
<svg version="1.1" xmlns:xlink="http://www.w3.org/1999/xlink" width="23px" height="19px" xmlns="http://www.w3.org/2000/svg">
  <g transform="matrix(1 0 0 1 -300 -647 )">
    <path d="M 11.738651102464331 8.944805194805195  L 22.328793774319067 0.1850649350649346  C 22.517725897103332 0.02878787878787792  22.676826632079553 -0.024675324675325738  22.80609597924773 0.02467532467532363  C 22.935365326415912 0.074025974025973  23 0.20562770562770394  23 0.41948051948051857  L 23 18.58051948051948  C 23 18.794372294372295  22.935365326415912 18.92597402597403  22.80609597924773 18.975324675324675  C 22.676826632079553 19.024675324675325  22.517725897103332 18.971212121212123  22.328793774319067 18.814935064935064  L 11.738651102464331 10.055194805194805  C 11.649156939040209 9.98116883116883  11.584522265456119 9.903030303030304  11.544747081712062 9.820779220779222  L 11.544747081712062 18.58051948051948  C 11.544747081712062 18.794372294372295  11.480112408127974 18.92597402597403  11.350843060959793 18.975324675324675  C 11.221573713791615 19.024675324675325  11.062472978815393 18.971212121212123  10.873540856031129 18.814935064935064  L 0.2833981841763943 10.055194805194805  C 0.09446606139213157 9.898917748917746  0 9.713852813852812  0 9.5  C 0 9.286147186147186  0.09446606139213157 9.10108225108225  0.2833981841763943 8.944805194805195  L 10.873540856031129 0.1850649350649346  C 11.062472978815393 0.02878787878787792  11.221573713791615 -0.024675324675325738  11.350843060959793 0.02467532467532363  C 11.480112408127974 0.074025974025973  11.544747081712062 0.20562770562770394  11.544747081712062 0.41948051948051857  L 11.544747081712062 9.17922077922078  C 11.584522265456119 9.096969696969696  11.649156939040209 9.01883116883117  11.738651102464331 8.944805194805195  Z " fill-rule="nonzero" fill="#000000" stroke="none" transform="matrix(1 0 0 1 300 647 )" />
  </g>
</svg>