<?xml version="1.0" encoding="utf-8"?>
<svg version="1.1" xmlns:xlink="http://www.w3.org/1999/xlink" width="27px" height="19px" xmlns="http://www.w3.org/2000/svg">
  <g transform="matrix(1 0 0 1 -370 -647 )">
    <path d="M 13.219844357976653 10.055194805194805  L 0.7879377431906615 18.814935064935064  C 0.5661478599221791 18.971212121212123  0.3793774319066149 19.024675324675325  0.2276264591439689 18.975324675324675  C 0.07587548638132298 18.92597402597403  0 18.794372294372295  0 18.58051948051948  L 0 0.41948051948051857  C 0 0.20562770562770394  0.07587548638132298 0.074025974025973  0.2276264591439689 0.02467532467532363  C 0.3793774319066149 -0.024675324675325738  0.5661478599221791 0.02878787878787792  0.7879377431906615 0.1850649350649346  L 13.219844357976653 8.944805194805195  C 13.32490272373541 9.01883116883117  13.400778210116732 9.096969696969696  13.447470817120623 9.17922077922078  L 13.447470817120623 0.41948051948051857  C 13.447470817120623 0.20562770562770394  13.523346303501945 0.074025974025973  13.67509727626459 0.02467532467532363  C 13.82684824902724 -0.024675324675325738  14.013618677042803 0.02878787878787792  14.235408560311285 0.1850649350649346  L 26.66731517509728 8.944805194805195  C 26.889105058365764 9.10108225108225  27.000000000000007 9.286147186147186  27 9.5  C 27.000000000000007 9.713852813852812  26.889105058365764 9.898917748917746  26.66731517509728 10.055194805194805  L 14.235408560311285 18.814935064935064  C 14.013618677042803 18.971212121212123  13.82684824902724 19.024675324675325  13.67509727626459 18.975324675324675  C 13.523346303501945 18.92597402597403  13.447470817120623 18.794372294372295  13.447470817120623 18.58051948051948  L 13.447470817120623 9.820779220779222  C 13.400778210116732 9.903030303030304  13.32490272373541 9.98116883116883  13.219844357976653 10.055194805194805  Z " fill-rule="nonzero" fill="#000000" stroke="none" transform="matrix(1 0 0 1 370 647 )" />
  </g>
</svg>