<?xml version="1.0" encoding="utf-8"?>
<svg version="1.1" xmlns:xlink="http://www.w3.org/1999/xlink" width="23px" height="19px" xmlns="http://www.w3.org/2000/svg">
  <g transform="matrix(1 0 0 1 -335 -647 )">
    <path d="M 22.715494791666668 0.23502604166666596  C 22.905164930555554 0.39171006944444187  23 0.5772569444444419  23 0.791666666666666  L 23 18.208333333333336  C 23 18.422743055555554  22.905164930555554 18.608289930555554  22.715494791666668 18.764973958333336  C 22.525824652777782 18.92165798611111  22.301215277777782 19  22.041666666666668 19  L 14.375 19  C 14.11545138888889 19  13.89084201388889 18.92165798611111  13.701171875 18.764973958333336  C 13.51150173611111 18.608289930555554  13.416666666666668 18.422743055555554  13 18.208333333333336  L 13 0.791666666666666  C 13.416666666666668 0.5772569444444419  13.51150173611111 0.39171006944444187  13.701171875 0.23502604166666596  C 13.89084201388889 0.07834201388888795  14.11545138888889 0  14.375 0  L 22.041666666666668 0  C 22.301215277777782 0  22.525824652777782 0.07834201388888795  22.715494791666668 0.23502604166666596  Z M 9.298828125 0.23502604166666596  C 9.488498263888891 0.39171006944444187  9.583333333333334 0.5772569444444419  10 0.791666666666666  L 10 18.208333333333336  C 9.583333333333334 18.422743055555554  9.488498263888891 18.608289930555554  9.298828125 18.764973958333336  C 9.109157986111112 18.92165798611111  8.884548611111112 19  8.625 19  L 0.9583333333333333 19  C 0.6987847222222223 19  0.4741753472222222 18.92165798611111  0.2845052083333333 18.764973958333336  C 0.09483506944444445 18.608289930555554  0 18.422743055555554  0 18.208333333333336  L 0 0.791666666666666  C 0 0.5772569444444419  0.09483506944444445 0.39171006944444187  0.2845052083333333 0.23502604166666596  C 0.4741753472222222 0.07834201388888795  0.6987847222222223 0  0.9583333333333333 0  L 8.625 0  C 8.884548611111112 0  9.109157986111112 0.07834201388888795  9.298828125 0.23502604166666596  Z " fill-rule="nonzero" fill="#000000" stroke="none" transform="matrix(1 0 0 1 335 647 )" />
  </g>
</svg>