<?xml version="1.0" encoding="utf-8"?>
<svg version="1.1" xmlns:xlink="http://www.w3.org/1999/xlink" width="17px" height="21px" xmlns="http://www.w3.org/2000/svg">
  <g transform="matrix(1 0 0 1 -407 -647 )">
    <path d="M 16.789713541666668 0.2597656249999992  C 16.92990451388889 0.4329427083333305  17 0.6380208333333305  17 0.8749999999999992  L 17 20.125  C 17 20.361979166666664  16.92990451388889 20.567057291666664  16.789713541666668 20.740234375  C 16.649522569444446 20.913411458333336  16.483506944444446 21  16.291666666666668 21  L 0.7083333333333333 21  C 0.5164930555555556 21  0.3504774305555555 20.913411458333336  0.21028645833333331 20.740234375  C 0.07009548611111112 20.567057291666664  0 20.361979166666664  0 20.125  L 0 0.8749999999999992  C 0 0.6380208333333305  0.07009548611111112 0.4329427083333305  0.21028645833333331 0.2597656249999992  C 0.3504774305555555 0.08658854166666563  0.5164930555555556 0  0.7083333333333333 0  L 16.291666666666668 0  C 16.483506944444446 0  16.649522569444446 0.08658854166666563  16.789713541666668 0.2597656249999992  Z " fill-rule="nonzero" fill="#000000" stroke="none" transform="matrix(1 0 0 1 407 647 )" />
  </g>
</svg>