<?xml version="1.0" encoding="utf-8"?>
<svg version="1.1" xmlns:xlink="http://www.w3.org/1999/xlink" width="23px" height="22px" xmlns="http://www.w3.org/2000/svg">
  <g transform="matrix(1 0 0 1 -457 -647 )">
    <path d="M 10.352764423076923 1.8874824191279893  C 10.527844551282051 2.0834505391467406  10.615384615384617 2.315518049695263  11 2.5836849507735575  L 11 19.41631504922644  C 10.615384615384617 19.684481950304736  10.527844551282051 19.916549460853258  10.352764423076923 20.112517580872012  C 10.177684294871796 20.308485700890763  9.970352564102564 20.40646976090014  9.73076923076923 20.40646976090014  C 9.491185897435898 20.40646976090014  9.283854166666668 20.308485700890763  9.108774038461538 20.112517580872012  L 4.506009615384615 14.960618846694794  L 0.8846153846153847 14.960618846694794  C 0.6450320512820514 14.960618846694794  0.43770032051282054 14.862634786685419  0.2626201923076923 14.666666666666668  C 0.0875400641025641 14.470698546647913  0 14.23863103609939  0 13.970464135021098  L 0 8.029535864978902  C 0 7.761368963900608  0.0875400641025641 7.529301453352083  0.2626201923076923 7.333333333333334  C 0.43770032051282054 7.137365213314578  0.6450320512820514 7.0393811533052055  0.8846153846153847 7.0393811533052055  L 4.506009615384615 7.0393811533052055  L 9.108774038461538 1.8874824191279893  C 9.283854166666668 1.6915142991092358  9.491185897435898 1.5935302390998602  9.73076923076923 1.5935302390998602  C 9.970352564102564 1.5935302390998602  10.177684294871796 1.6915142991092358  10.352764423076923 1.8874824191279893  Z M 15.335637019230768 8.80309423347398  C 15.727263621794874 9.483825597749648  15.923076923076923 10.216127519924985  15.923076923076923 11  C 15.923076923076923 11.783872480075011  15.727263621794874 12.513595874355367  15.335637019230768 13.18917018284107  C 14.944010416666668 13.864744491326766  14.42568108974359 14.3469292076887  13.780649038461538 14.635724331926864  C 13.688501602564106 14.687294889826532  13.57331730769231 14.71308016877637  13.435096153846155 14.71308016877637  C 13.195512820512823 14.71308016877637  12.98818108974359 14.617674636661976  12.813100961538462 14.426863572433192  C 12.638020833333336 14.236052508204404  12.550480769230768 14.0014064697609  12.550480769230768 13.722925457102672  C 12.550480769230768 13.50632911392405  12.605769230769232 13.323253633380215  12.716346153846155 13.173699015471167  C 12.826923076923077 13.024144397562118  12.960536858974361 12.89521800281294  13.1171875 12.78691983122363  C 13.273838141025644 12.678621659634317  13.430488782051283 12.56000937646507  13.587139423076923 12.431082981715894  C 13.743790064102564 12.302156586966712  13.877403846153845 12.116502578527893  13.987980769230768 11.874120956399436  C 14.098557692307693 11.631739334270979  14.153846153846155 11.340365682137833  14.153846153846155 11  C 14.153846153846155 10.659634317862167  14.098557692307693 10.36826066572902  13.987980769230768 10.12587904360056  C 13.877403846153845 9.883497421472104  13.743790064102564 9.697843413033285  13.587139423076923 9.568917018284107  C 13.430488782051283 9.439990623534928  13.273838141025644 9.321378340365683  13.1171875 9.213080168776372  C 12.960536858974361 9.10478199718706  12.826923076923077 8.97585560243788  12.716346153846155 8.826300984528833  C 12.605769230769232 8.676746366619783  12.550480769230768 8.493670886075948  12.550480769230768 8.277074542897328  C 12.550480769230768 7.9985935302390985  12.638020833333336 7.763947491795592  12.813100961538462 7.5731364275668085  C 12.98818108974359 7.382325363338022  13.195512820512823 7.286919831223628  13.435096153846155 7.286919831223628  C 13.57331730769231 7.286919831223628  13.688501602564106 7.312705110173464  13.780649038461538 7.364275668073136  C 14.42568108974359 7.642756680731365  14.944010416666668 8.122362869198312  15.335637019230768 8.80309423347398  Z M 18.286658653846153 6.629395218002812  C 19.06991185897436 7.965072667604312  19.46153846153846 9.421940928270041  19.46153846153846 11  C 19.46153846153846 12.578059071729959  19.06991185897436 14.034927332395686  18.286658653846153 15.370604781997185  C 17.503405448717952 16.706282231598685  16.466746794871796 17.678387248007496  15.176682692307693 18.28691983122363  C 15.056891025641029 18.3384903891233  14.941706730769232 18.364275668073137  14.831129807692307 18.364275668073137  C 14.582331730769232 18.364275668073137  14.37039262820513 18.26629160806376  14.1953125 18.070323488045005  C 14.020232371794874 17.874355368026254  13.93269230769231 17.64228785747773  13.932692307692307 17.374120956399437  C 13.93269230769231 16.971870604781998  14.11237980769231 16.667604313173932  14.471754807692307 16.461322081575247  C 14.98778044871795 16.162212845757146  15.337940705128206 15.935302390998594  15.522235576923077 15.780590717299578  C 16.204126602564106 15.223628691983123  16.736278044871796 14.524847632442567  17.118689903846153 13.684247538677917  C 17.501101762820515 12.843647444913266  17.692307692307693 11.94889826535396  17.692307692307693 11  C 17.692307692307693 10.051101734646037  17.501101762820515 9.15635255508673  17.118689903846153 8.31575246132208  C 16.736278044871796 7.47515236755743  16.204126602564106 6.776371308016878  15.522235576923077 6.219409282700422  C 15.337940705128206 6.064697609001407  14.98778044871795 5.837787154242849  14.471754807692307 5.538677918424753  C 14.11237980769231 5.3323956868260645  13.93269230769231 5.028129395218003  13.932692307692307 4.625879043600562  C 13.93269230769231 4.357712142522267  14.020232371794874 4.125644631973744  14.1953125 3.929676511954993  C 14.37039262820513 3.7337083919362395  14.577724358974361 3.635724331926864  14.817307692307693 3.635724331926864  C 14.937099358974361 3.635724331926864  15.056891025641029 3.661509610876696  15.176682692307693 3.713080168776372  C 16.466746794871796 4.321612751992498  17.503405448717952 5.29371776840131  18.286658653846153 6.629395218002812  Z M 21.244591346153847 4.463431786216596  C 22.414863782051285 6.448898265353961  23 8.627754336615093  23 11  C 23 13.372245663384902  22.414863782051285 15.551101734646034  21.244591346153847 17.536568213783404  C 20.074318910256412 19.52203469292077  18.517027243589745 20.984060009376464  16.572716346153847 21.92264416315049  C 16.45292467948718 21.974214721050163  16.333133012820515 22  16.213341346153847 22  C 15.973758012820513 22  15.766426282051283 21.902015939990626  15.591346153846155 21.70604781997187  C 15.416266025641029 21.510079699953117  15.328725961538462 21.278012189404592  15.328725961538462 21.0098452883263  C 15.328725961538462 20.638537271448662  15.508413461538462 20.3342709798406  15.867788461538462 20.09704641350211  C 15.932291666666668 20.05578996718237  16.035957532051285 20.001640881387715  16.178786057692307 19.934599156118143  C 16.321614583333336 19.86755743084857  16.425280448717952 19.813408345053915  16.489783653846153 19.772151898734176  C 16.91366185897436 19.514299109235818  17.291466346153847 19.25128926394749  17.623197115384617 18.9831223628692  C 18.756610576923077 18.04453820909517  19.64122596153846 16.873886544772617  20.277043269230766 15.471167369901547  C 20.912860576923077 14.068448195030474  21.230769230769234 12.578059071729959  21.230769230769234 11  C 21.230769230769234 9.421940928270041  20.912860576923077 7.931551804969527  20.277043269230766 6.528832630098453  C 19.64122596153846 5.126113455227379  18.756610576923077 3.9554617909048275  17.623197115384617 3.0168776371308015  C 17.291466346153847 2.748710736052507  16.91366185897436 2.4857008907641798  16.489783653846153 2.2278481012658222  C 16.425280448717952 2.186591654946083  16.321614583333336 2.1324425691514284  16.178786057692307 2.065400843881857  C 16.035957532051285 1.9983591186122809  15.932291666666668 1.9442100328176257  15.867788461538462 1.9029535864978915  C 15.508413461538462 1.6657290201593964  15.328725961538462 1.361462728551335  15.328725961538462 0.9901547116737  C 15.328725961538462 0.721987810595403  15.416266025641029 0.48992030004688014  15.591346153846155 0.29395218002812906  C 15.766426282051283 0.09798406000937554  15.973758012820513 0  16.213341346153847 0  C 16.333133012820515 0  16.45292467948718 0.02578527894983451  16.572716346153847 0.07735583684950842  C 18.517027243589745 1.015939990623532  20.074318910256412 2.477965307079229  21.244591346153847 4.463431786216596  Z " fill-rule="nonzero" fill="#000000" stroke="none" transform="matrix(1 0 0 1 457 647 )" />
  </g>
</svg>