<?xml version="1.0" encoding="utf-8"?>
<svg version="1.1" xmlns:xlink="http://www.w3.org/1999/xlink" width="28px" height="27px" xmlns="http://www.w3.org/2000/svg">
  <g transform="matrix(1 0 0 1 -1151 -643 )">
    <path d="M 13.580729166666668 15.908203124999998  C 13.702256944444445 16.025390625  13.763020833333332 16.16015625  13.763020833333332 16.312500000000004  C 13.763020833333332 16.464843749999996  13.702256944444445 16.599609374999996  13.580729166666668 16.716796875  L 7.528645833333333 22.552734375  L 10.153645833333332 25.083984375  C 10.384548611111112 25.306640625  10.5 25.5703125  10.5 25.875  C 10.5 26.179687499999996  10.384548611111112 26.443359374999996  10.153645833333332 26.666015625  C 9.922743055555557 26.888671875  9.649305555555557 27  9.333333333333332 27  L 1.1666666666666665 27  C 0.8506944444444445 27  0.5772569444444444 26.888671875  0.34635416666666663 26.666015625  C 0.1154513888888889 26.443359374999996  0 26.179687499999996  0 25.875  L 0 18.000000000000004  C 0 17.6953125  0.1154513888888889 17.431640625  0.34635416666666663 17.208984375000004  C 0.5772569444444444 16.986328125  0.8506944444444445 16.875  1.1666666666666665 16.875  C 1.482638888888889 16.875  1.756076388888889 16.986328125  1.9869791666666667 17.208984375000004  L 4.611979166666666 19.740234375000004  L 10.6640625 13.904296874999998  C 10.78559027777778 13.787109375  10.925347222222223 13.728515625000002  11.083333333333332 13.728515625000002  C 11.241319444444445 13.728515625000002  11.38107638888889 13.787109375  11.502604166666668 13.904296874999998  L 13.580729166666668 15.908203124999998  Z M 27.653645833333336 0.333984374999999  C 27.88454861111111 0.5566406249999963  28 0.8203124999999963  28 1.1249999999999991  L 28 9.000000000000002  C 28 9.304687499999998  27.88454861111111 9.568359374999998  27.653645833333336 9.791015625000002  C 27.42274305555556 10.013671874999998  27.14930555555556 10.125  26.833333333333336 10.125  C 26.517361111111114 10.125  26.243923611111114 10.013671874999998  26.013020833333336 9.791015625000002  L 23.388020833333336 7.259765625000001  L 17.3359375 13.095703124999998  C 17.21440972222222 13.212890625  17.07465277777778 13.271484375000002  16.916666666666664 13.271484375000002  C 16.75868055555556 13.271484375000002  16.618923611111114 13.212890625  16.497395833333336 13.095703124999998  L 14.419270833333334 11.091796874999998  C 14.297743055555557 10.974609374999998  14.236979166666666 10.83984375  14.236979166666666 10.687500000000002  C 14.236979166666666 10.53515625  14.297743055555557 10.400390624999996  14.419270833333334 10.283203125  L 20.471354166666664 4.447265624999999  L 17.846354166666664 1.9160156249999991  C 17.61545138888889 1.6933593749999987  17.500000000000004 1.4296874999999987  17.5 1.1249999999999991  C 17.500000000000004 0.8203124999999963  17.61545138888889 0.5566406249999963  17.846354166666664 0.333984374999999  C 18.077256944444446 0.11132812499999867  18.350694444444446 0  18.666666666666664 0  L 26.833333333333336 0  C 27.14930555555556 0  27.42274305555556 0.11132812499999867  27.653645833333336 0.333984374999999  Z " fill-rule="nonzero" fill="#000000" stroke="none" transform="matrix(1 0 0 1 1151 643 )" />
  </g>
</svg>