<?xml version="1.0" encoding="utf-8"?>
<svg version="1.1" xmlns:xlink="http://www.w3.org/1999/xlink" width="932px" height="122px" xmlns="http://www.w3.org/2000/svg">
  <g transform="matrix(1 0 0 1 -256 -699 )">
    <path d="M 256 699  L 1188 699  L 1188 821  L 256 821  L 256 699  " fill-rule="nonzero" fill="#cccccc" stroke="none" />
    <path d="M 265 708  L 1179 708  L 1179 812  L 265 812  L 265 708  " fill-rule="nonzero" fill="#ffffff" stroke="none" />
    <path d="M 749.7900000000001 735.5999999999999  C 744.666 735.5999999999999  740.6400000000001 731.574  740.6400000000001 726.4499999999999  C 740.6400000000001 721.3259999999999  744.666 717.3  749.7900000000001 717.3  C 754.9140000000001 717.3  758.94 721.3259999999999  758.94 726.4499999999999  C 758.94 731.574  754.9140000000001 735.5999999999999  749.7900000000001 735.5999999999999  " fill-rule="nonzero" fill="#cccccc" stroke="none" />
    <path d="M 268 809  L 268 755.1  L 495 730.6  L 812.8 801.3030042918455  L 994.4000000000001 745.3  L 1176 801.3030042918455  L 1176 809  L 268 809  " fill-rule="nonzero" fill="#169bd5" stroke="none" />
  </g>
</svg>