<?xml version="1.0" encoding="utf-8"?>
<svg version="1.1" xmlns:xlink="http://www.w3.org/1999/xlink" width="215px" height="143px" xmlns="http://www.w3.org/2000/svg">
  <g transform="matrix(1 0 0 1 -501 -429 )">
    <path d="M 501 429  L 716 429  L 716 572  L 501 572  L 501 429  " fill-rule="nonzero" fill="#cccccc" stroke="none" />
    <path d="M 511 439  L 706 439  L 706 562  L 511 562  L 511 439  " fill-rule="nonzero" fill="#ffffff" stroke="none" />
    <path d="M 623.525 471.9  C 617.519 471.9  612.8 467.181  612.8 461.17499999999995  C 612.8 455.169  617.519 450.45  623.525 450.45  C 629.531 450.45  634.25 455.169  634.25 461.17499999999995  C 634.25 467.181  629.531 471.9  623.525 471.9  " fill-rule="nonzero" fill="#cccccc" stroke="none" />
    <path d="M 515 559  L 515 495.2  L 562 466.2  L 627.8 512.7079069767442  L 665.4 483.6  L 703 512.7079069767442  L 703 559  L 515 559  " fill-rule="nonzero" fill="#169bd5" stroke="none" />
  </g>
</svg>