<?xml version="1.0" encoding="utf-8"?>
<svg version="1.1" xmlns:xlink="http://www.w3.org/1999/xlink" width="932px" height="604px" xmlns="http://www.w3.org/2000/svg">
  <g transform="matrix(1 0 0 1 -256 -74 )">
    <path d="M 256 74  L 1188 74  L 1188 678  L 256 678  L 256 74  " fill-rule="nonzero" fill="#cccccc" stroke="none" />
    <path d="M 298 116  L 1146 116  L 1146 636  L 298 636  L 298 116  " fill-rule="nonzero" fill="#ffffff" stroke="none" />
    <path d="M 785.94 255.2  C 760.5720000000001 255.2  740.6400000000001 235.26799999999997  740.6400000000001 209.89999999999998  C 740.6400000000001 184.53199999999998  760.5720000000001 164.6  785.94 164.6  C 811.3080000000001 164.6  831.2400000000001 184.53199999999998  831.2400000000001 209.89999999999998  C 831.2400000000001 235.26799999999997  811.3080000000001 255.2  785.94 255.2  " fill-rule="nonzero" fill="#cccccc" stroke="none" />
    <path d="M 313 621  L 313 351.5  L 517.5 229  L 803.8 430.4678111587983  L 967.4000000000001 302.5  L 1131 430.4678111587983  L 1131 621  L 313 621  " fill-rule="nonzero" fill="#169bd5" stroke="none" />
  </g>
</svg>