<?xml version="1.0" encoding="utf-8"?>
<svg version="1.1" xmlns:xlink="http://www.w3.org/1999/xlink" width="30px" height="26px" xmlns="http://www.w3.org/2000/svg">
  <g transform="matrix(1 0 0 1 -315 -640 )">
    <path d="M 15.311284046692606 12.24025974025974  L 29.124513618677042 0.2532467532467526  C 29.370946822308696 0.039393939393938204  29.578469520103763 -0.03376623376623522  29.747081712062258 0.033766233766232334  C 29.915693904020753 0.10129870129869989  30 0.2813852813852791  30 0.5740259740259728  L 30 25.42597402597403  C 30 25.718614718614717  29.915693904020753 25.8987012987013  29.747081712062258 25.966233766233767  C 29.578469520103763 26.033766233766237  29.370946822308696 25.96060606060606  29.124513618677042 25.746753246753247  L 15.311284046692606 13.75974025974026  C 15.194552529182882 13.658441558441558  15.110246433203635 13.551515151515153  15 13.43896103896104  L 15 25.42597402597403  C 15.058365758754864 25.718614718614717  14.974059662775618 25.8987012987013  14.805447470817121 25.966233766233767  C 14.636835278858628 26.033766233766237  14.429312581063556 25.96060606060606  14.182879377431906 25.746753246753247  L 0.3696498054474708 13.75974025974026  C 0.12321660181582379 13.545887445887443  0 13.29264069264069  0 13  C 0 12.707359307359306  0.12321660181582379 12.454112554112553  0.3696498054474708 12.24025974025974  L 14.182879377431906 0.2532467532467526  C 14.429312581063556 0.039393939393938204  14.636835278858628 -0.03376623376623522  14.805447470817121 0.033766233766232334  C 14.974059662775618 0.10129870129869989  15.058365758754864 0.2813852813852791  15 0.5740259740259728  L 15 12.561038961038962  C 15.110246433203635 12.448484848484847  15.194552529182882 12.341558441558442  15.311284046692606 12.24025974025974  Z " fill-rule="nonzero" fill="#000000" stroke="none" transform="matrix(1 0 0 1 315 640 )" />
  </g>
</svg>