<?xml version="1.0" encoding="utf-8"?>
<svg version="1.1" xmlns:xlink="http://www.w3.org/1999/xlink" width="27px" height="26px" xmlns="http://www.w3.org/2000/svg">
  <g transform="matrix(1 0 0 1 -413 -640 )">
    <path d="M 13.219844357976653 13.75974025974026  L 0.7879377431906615 25.746753246753247  C 0.5661478599221791 25.96060606060606  0.3793774319066149 26.033766233766237  0.2276264591439689 25.966233766233767  C 0.07587548638132298 25.8987012987013  0 25.718614718614717  0 25.42597402597403  L 0 0.5740259740259728  C 0 0.2813852813852791  0.07587548638132298 0.10129870129869989  0.2276264591439689 0.033766233766232334  C 0.3793774319066149 -0.03376623376623522  0.5661478599221791 0.039393939393938204  0.7879377431906615 0.2532467532467526  L 13.219844357976653 12.24025974025974  C 13.32490272373541 12.341558441558442  13.400778210116732 12.448484848484847  13 12.561038961038962  L 13 0.5740259740259728  C 13.447470817120623 0.2813852813852791  13.523346303501945 0.10129870129869989  13.67509727626459 0.033766233766232334  C 13.82684824902724 -0.03376623376623522  14.013618677042803 0.039393939393938204  14.235408560311285 0.2532467532467526  L 26.66731517509728 12.24025974025974  C 26.889105058365764 12.454112554112553  27.000000000000007 12.707359307359306  27 13  C 27.000000000000007 13.29264069264069  26.889105058365764 13.545887445887443  26.66731517509728 13.75974025974026  L 14.235408560311285 25.746753246753247  C 14.013618677042803 25.96060606060606  13.82684824902724 26.033766233766237  13.67509727626459 25.966233766233767  C 13.523346303501945 25.8987012987013  13.447470817120623 25.718614718614717  13 25.42597402597403  L 13 13.43896103896104  C 13.400778210116732 13.551515151515153  13.32490272373541 13.658441558441558  13.219844357976653 13.75974025974026  Z " fill-rule="nonzero" fill="#000000" stroke="none" transform="matrix(1 0 0 1 413 640 )" />
  </g>
</svg>