<?xml version="1.0" encoding="utf-8"?>
<svg version="1.1" xmlns:xlink="http://www.w3.org/1999/xlink" width="36px" height="26px" xmlns="http://www.w3.org/2000/svg">
  <g transform="matrix(1 0 0 1 -362 -640 )">
    <path d="M 35.5546875 0.32161458333333237  C 35.8515625 0.536024305555552  36 0.789930555555552  36 1.0833333333333324  L 36 24.916666666666668  C 36 25.210069444444443  35.8515625 25.463975694444443  35.5546875 25.678385416666668  C 35.25781250000001 25.89279513888889  34.90625000000001 26  34.5 26  L 22.5 26  C 22.09375 26  21.7421875 25.89279513888889  21.4453125 25.678385416666668  C 21.1484375 25.463975694444443  21 25.210069444444443  21 24.916666666666668  L 21 1.0833333333333324  C 21 0.789930555555552  21.1484375 0.536024305555552  21.4453125 0.32161458333333237  C 21.7421875 0.10720486111110983  22.09375 0  22.5 0  L 34.5 0  C 34.90625000000001 0  35.25781250000001 0.10720486111110983  35.5546875 0.32161458333333237  Z M 14.5546875 0.32161458333333237  C 14.851562500000002 0.536024305555552  15 0.789930555555552  15 1.0833333333333324  L 15 24.916666666666668  C 15 25.210069444444443  14.851562500000002 25.463975694444443  14.5546875 25.678385416666668  C 14.257812500000002 25.89279513888889  13.906250000000002 26  13.5 26  L 1.5 26  C 1.09375 26  0.7421875 25.89279513888889  0.4453125 25.678385416666668  C 0.1484375 25.463975694444443  0 25.210069444444443  0 24.916666666666668  L 0 1.0833333333333324  C 0 0.789930555555552  0.1484375 0.536024305555552  0.4453125 0.32161458333333237  C 0.7421875 0.10720486111110983  1.09375 0  1.5 0  L 13.5 0  C 13.906250000000002 0  14.257812500000002 0.10720486111110983  14.5546875 0.32161458333333237  Z " fill-rule="nonzero" fill="#000000" stroke="none" transform="matrix(1 0 0 1 362 640 )" />
  </g>
</svg>