<?xml version="1.0" encoding="utf-8"?>
<svg version="1.1" xmlns:xlink="http://www.w3.org/1999/xlink" width="25px" height="26px" xmlns="http://www.w3.org/2000/svg">
  <g transform="matrix(1 0 0 1 -451 -640 )">
    <path d="M 24.690755208333336 0.32161458333333237  C 24.896918402777775 0.536024305555552  25 0.789930555555552  25 1.0833333333333324  L 25 24.916666666666668  C 25 25.210069444444443  24.896918402777775 25.463975694444443  24.690755208333336 25.678385416666668  C 24.484592013888893 25.89279513888889  24.240451388888893 26  23.958333333333336 26  L 1.0416666666666665 26  C 0.7595486111111112 26  0.515407986111111 25.89279513888889  0.30924479166666663 25.678385416666668  C 0.10308159722222222 25.463975694444443  0 25.210069444444443  0 24.916666666666668  L 0 1.0833333333333324  C 0 0.789930555555552  0.10308159722222222 0.536024305555552  0.30924479166666663 0.32161458333333237  C 0.515407986111111 0.10720486111110983  0.7595486111111112 0  1.0416666666666665 0  L 23.958333333333336 0  C 24.240451388888893 0  24.484592013888893 0.10720486111110983  24.690755208333336 0.32161458333333237  Z " fill-rule="nonzero" fill="#000000" stroke="none" transform="matrix(1 0 0 1 451 640 )" />
  </g>
</svg>