<?xml version="1.0" encoding="utf-8"?>
<svg version="1.1" xmlns:xlink="http://www.w3.org/1999/xlink" width="35px" height="31px" xmlns="http://www.w3.org/2000/svg">
  <g transform="matrix(1 0 0 1 -515 -638 )">
    <path d="M 15.75420673076923 2.659634317862167  C 16.02063301282051 2.935771214252225  16.153846153846153 3.262775433661507  16.153846153846153 3.640646976090013  L 16.153846153846153 27.359353023909986  C 16.153846153846153 27.73722456633849  16.02063301282051 28.064228785747773  15.75420673076923 28.340365682137833  C 15.487780448717949 28.616502578527896  15.172275641025642 28.754571026722925  14.807692307692308 28.754571026722925  C 14.443108974358976 28.754571026722925  14.127604166666668 28.616502578527896  13.861177884615385 28.340365682137833  L 6.856971153846154 21.080872011251756  L 1.3461538461538463 21.080872011251756  C 0.981570512820513 21.080872011251756  0.6660657051282052 20.942803563056728  0.3996394230769231 20.666666666666668  C 0.13321314102564102 20.390529770276604  0 20.063525550867322  0 19.68565400843882  L 0 11.314345991561181  C 0 10.936474449132675  0.13321314102564102 10.609470229723389  0.3996394230769231 10.333333333333334  C 0.6660657051282052 10.057196436943268  0.981570512820513 9.919127988748244  1.3461538461538463 9.919127988748244  L 6.856971153846154 9.919127988748244  L 13.861177884615385 2.659634317862167  C 14.127604166666668 2.383497421472105  14.443108974358976 2.245428973277076  14.807692307692308 2.245428973277076  C 15.172275641025642 2.245428973277076  15.487780448717949 2.383497421472105  15.75420673076923 2.659634317862167  Z M 23.33683894230769 12.404360056258788  C 23.932792467948723 13.363572433192687  24.23076923076923 14.395452414439752  24.23076923076923 15.5  C 24.23076923076923 16.604547585560244  23.932792467948723 17.632794186591656  23.33683894230769 18.584739803094234  C 22.740885416666668 19.536685419596807  21.952123397435898 20.216127519924985  20.970552884615383 20.623066104078763  C 20.83032852564103 20.695733708391934  20.65504807692308 20.73206751054852  20.44471153846154 20.73206751054852  C 20.080128205128208 20.73206751054852  19.764623397435898 20.597632442569147  19.498197115384617 20.328762306610408  C 19.231770833333336 20.059892170651658  19.09855769230769 19.729254571026722  19.09855769230769 19.336849507735582  C 19.09855769230769 19.031645569620252  19.18269230769231 18.773675574308484  19.35096153846154 18.56293952180028  C 19.51923076923077 18.352203469292075  19.72255608974359 18.17053445850914  19.9609375 18.01793248945148  C 20.199318910256416 17.86533052039381  20.43770032051282 17.698195030473507  20.67608173076923 17.51652601969058  C 20.914463141025642 17.33485700890764  21.11778846153846 17.073253633380215  21.28605769230769 16.731715893108298  C 21.454326923076923 16.390178152836377  21.53846153846154 15.979606188466947  21.53846153846154 15.5  C 21.53846153846154 15.020393811533053  21.454326923076923 14.609821847163618  21.28605769230769 14.2682841068917  C 21.11778846153846 13.926746366619783  20.914463141025642 13.665142991092356  20.67608173076923 13.483473980309425  C 20.43770032051282 13.30180496952649  20.199318910256416 13.13466947960619  19.9609375 12.982067510548525  C 19.72255608974359 12.829465541490856  19.51923076923077 12.647796530707922  19.35096153846154 12.437060478199719  C 19.18269230769231 12.226324425691512  19.09855769230769 11.968354430379746  19.09855769230769 11.663150492264416  C 19.09855769230769 11.270745428973274  19.231770833333336 10.940107829348333  19.498197115384617 10.671237693389592  C 19.764623397435898 10.40236755743085  20.080128205128208 10.267932489451475  20.44471153846154 10.267932489451475  C 20.65504807692308 10.267932489451475  20.83032852564103 10.304266291608064  20.970552884615383 10.376933895921237  C 21.952123397435898 10.769338959212378  22.740885416666668 11.445147679324895  23.33683894230769 12.404360056258788  Z M 27.82752403846154 9.341420534458509  C 29.01943108974359 11.223511486169713  29.615384615384617 13.276371308016877  29.615384615384617 15.5  C 29.615384615384617 17.723628691983123  29.01943108974359 19.776488513830284  27.82752403846154 21.65857946554149  C 26.63561698717949 23.540670417252695  25.058092948717952 24.910454758556018  23.094951923076923 25.76793248945148  C 22.91266025641026 25.84060009376465  22.73737980769231 25.876933895921237  22.569110576923077 25.876933895921237  C 22.19050480769231 25.876933895921237  21.867988782051285 25.73886544772621  21.6015625 25.462728551336145  C 21.335136217948723 25.186591654946085  21.20192307692308 24.859587435536803  21.201923076923077 24.481715893108298  C 21.20192307692308 23.91490857946554  21.47536057692308 23.486169714017816  22.022235576923077 23.19549929676512  C 22.80749198717949 22.774027191748708  23.34034455128205 22.454289732770743  23.62079326923077 22.236286919831223  C 24.65845352564103 21.451476793248943  25.468249198717952 20.466830754805436  26.05018028846154 19.2823488045007  C 26.632111378205128 18.097866854195967  26.923076923076923 16.8370839193624  26.923076923076923 15.5  C 26.923076923076923 14.162916080637597  26.632111378205128 12.90213314580403  26.05018028846154 11.717651195499295  C 25.468249198717952 10.53316924519456  24.65845352564103 9.548523206751055  23.62079326923077 8.763713080168776  C 23.34034455128205 8.545710267229255  22.80749198717949 8.225972808251289  22.022235576923077 7.804500703234879  C 21.47536057692308 7.513830285982182  21.20192307692308 7.085091420534459  21.201923076923077 6.5182841068917  C 21.20192307692308 6.140412564463194  21.335136217948723 5.8134083450539125  21.6015625 5.537271448663854  C 21.867988782051285 5.261134552273792  22.18349358974359 5.123066104078763  22.548076923076923 5.123066104078763  C 22.73036858974359 5.123066104078763  22.91266025641026 5.159399906235344  23.094951923076923 5.232067510548525  C 25.058092948717952 6.0895452414439735  26.63561698717949 7.4593295827473  27.82752403846154 9.341420534458509  Z M 32.32872596153846 6.289381153305204  C 34.109575320512825 9.0870839193624  35 12.157290201593995  35 15.5  C 35 18.842709798406  34.109575320512825 21.912916080637594  32.32872596153846 24.710618846694796  C 30.547876602564106 27.508321612751992  28.178084935897438 29.56844819503047  25.21935096153846 30.890998593530238  C 25.037059294871796 30.963666197843413  24.854767628205128 31  24.67247596153846 31  C 24.307892628205128 31  23.99238782051282 30.86193155180497  23.72596153846154 30.585794655414908  C 23.45953525641026 30.309657759024848  23.326322115384617 29.982653539615562  23.326322115384617 29.60478199718706  C 23.326322115384617 29.081575246132207  23.599759615384617 28.65283638068448  24.146634615384617 28.318565400843884  C 24.244791666666668 28.26043131739334  24.40254407051282 28.18413033286451  24.619891826923077 28.089662447257382  C 24.837239583333336 27.995194561650262  24.99499198717949 27.918893577121427  25.09314903846154 27.860759493670887  C 25.73818108974359 27.497421472105017  26.31310096153846 27.126816690107827  26.817908653846153 26.748945147679326  C 28.54266826923077 25.426394749179558  29.888822115384617 23.776840131270507  30.85637019230769 21.80028129395218  C 31.82391826923077 19.82372245663385  32.30769230769231 17.723628691983123  32.30769230769231 15.5  C 32.30769230769231 13.276371308016877  31.82391826923077 11.176277543366151  30.85637019230769 9.19971870604782  C 29.888822115384617 7.223159868729488  28.54266826923077 5.573605250820439  26.817908653846153 4.251054852320674  C 26.31310096153846 3.873183309892169  25.73818108974359 3.502578527894981  25.09314903846154 3.1392405063291133  C 24.99499198717949 3.081106422878572  24.837239583333336 3.00480543834974  24.619891826923077 2.9103375527426167  C 24.40254407051282 2.8158696671354866  24.244791666666668 2.7395686826066545  24.146634615384617 2.6814345991561197  C 23.599759615384617 2.347163619315513  23.326322115384617 1.9184247538677903  23.326322115384617 1.3952180028129408  C 23.326322115384617 1.0173464603844313  23.45953525641026 0.6903422409751493  23.72596153846154 0.41420534458509095  C 23.99238782051282 0.13806844819502917  24.307892628205128 0  24.67247596153846 0  C 24.854767628205128 0  25.037059294871796 0.03633380215658499  25.21935096153846 0.10900140646976186  C 28.178084935897438 1.4315518049695224  30.547876602564106 3.491678387248004  32.32872596153846 6.289381153305204  Z " fill-rule="nonzero" fill="#000000" stroke="none" transform="matrix(1 0 0 1 515 638 )" />
  </g>
</svg>