<?xml version="1.0" encoding="utf-8"?>
<svg version="1.1" xmlns:xlink="http://www.w3.org/1999/xlink" width="34px" height="35px" xmlns="http://www.w3.org/2000/svg">
  <g transform="matrix(1 0 0 1 -1148 -636 )">
    <path d="M 16.490885416666668 20.621744791666664  C 16.63845486111111 20.77365451388889  16.712239583333332 20.948350694444446  16.712239583333332 21.145833333333336  C 16.712239583333332 21.343315972222218  16.63845486111111 21.518012152777775  16.490885416666668 21.669921875  L 9.141927083333332 29.235026041666668  L 12.329427083333332 32.51627604166667  C 12.609809027777779 32.80490451388889  12.75 33.14670138888889  12.75 33.54166666666667  C 12.75 33.93663194444444  12.609809027777779 34.27842881944444  12.329427083333332 34.56705729166667  C 12.04904513888889 34.85568576388889  11.71701388888889 35  11.333333333333332 35  L 1.4166666666666665 35  C 1.0329861111111112 35  0.700954861111111 34.85568576388889  0.42057291666666663 34.56705729166667  C 0.14019097222222224 34.27842881944444  0 33.93663194444444  0 33.54166666666667  L 0 23.333333333333336  C 0 22.938368055555554  0.14019097222222224 22.596571180555554  0.42057291666666663 22.307942708333336  C 0.700954861111111 22.01931423611111  1.0329861111111112 21.875  1.4166666666666665 21.875  C 1.8003472222222223 21.875  2.1323784722222223 22.01931423611111  2.412760416666667 22.307942708333336  L 5.600260416666666 25.589192708333336  L 12.94921875 18.024088541666664  C 13.096788194444446 17.872178819444446  13.266493055555557 17.796223958333336  13.458333333333332 17.796223958333336  C 13.650173611111112 17.796223958333336  13.819878472222223 17.872178819444446  13.967447916666668 18.024088541666664  L 16.490885416666668 20.621744791666664  Z M 33.579427083333336 0.43294270833333204  C 33.85980902777778 0.7215711805555508  34 1.063368055555551  34 1.4583333333333321  L 34 11.666666666666668  C 34 12.061631944444441  33.85980902777778 12.403428819444441  33.579427083333336 12.692057291666668  C 33.29904513888889 12.980685763888888  32.96701388888889 13.125  32.583333333333336 13.125  C 32.19965277777778 13.125  31.86762152777778 12.980685763888888  31.587239583333336 12.692057291666668  L 28.399739583333336 9.410807291666668  L 21.05078125 16.975911458333332  C 20.903211805555554 17.127821180555554  20.733506944444446 17.203776041666668  20.541666666666664 17.203776041666668  C 20.349826388888893 17.203776041666668  20.18012152777778 17.127821180555554  20.032552083333336 16.975911458333332  L 17.509114583333336 14.378255208333332  C 17.36154513888889 14.226345486111109  17.287760416666664 14.051649305555555  17.287760416666664 13.854166666666668  C 17.287760416666664 13.656684027777777  17.36154513888889 13.481987847222218  17.509114583333336 13.330078125  L 24.858072916666664 5.764973958333332  L 21.670572916666664 2.483723958333332  C 21.390190972222225 2.1950954861111094  21.250000000000004 1.8532986111111094  21.25 1.4583333333333321  C 21.250000000000004 1.063368055555551  21.390190972222225 0.7215711805555508  21.670572916666664 0.43294270833333204  C 21.950954861111114 0.14431423611110938  22.282986111111114 0  22.666666666666664 0  L 32.583333333333336 0  C 32.96701388888889 0  33.29904513888889 0.14431423611110938  33.579427083333336 0.43294270833333204  Z " fill-rule="nonzero" fill="#000000" stroke="none" transform="matrix(1 0 0 1 1148 636 )" />
  </g>
</svg>