<?xml version="1.0" encoding="utf-8"?>
<svg version="1.1" xmlns:xlink="http://www.w3.org/1999/xlink" width="1100px" height="325px" xmlns="http://www.w3.org/2000/svg">
  <g transform="matrix(1 0 0 1 -236 -53 )">
    <path d="M 236 53  L 1336 53  L 1336 378  L 236 378  L 236 53  " fill-rule="nonzero" fill="#cccccc" stroke="none" />
    <path d="M 259 76  L 1313 76  L 1313 355  L 259 355  L 259 76  " fill-rule="nonzero" fill="#ffffff" stroke="none" />
    <path d="M 832.375 150.5  C 818.725 150.5  808 139.775  808 126.125  C 808 112.475  818.725 101.75  832.375 101.75  C 846.025 101.75  856.75 112.475  856.75 126.125  C 856.75 139.775  846.025 150.5  832.375 150.5  " fill-rule="nonzero" fill="#cccccc" stroke="none" />
    <path d="M 267 347  L 267 202.35  L 526.5 136.6  L 889.8 300.3772727272727  L 1097.4 176.04999999999998  L 1305 300.3772727272727  L 1305 347  L 267 347  " fill-rule="nonzero" fill="#169bd5" stroke="none" />
  </g>
</svg>