<?xml version="1.0" encoding="utf-8"?>
<svg version="1.1" xmlns:xlink="http://www.w3.org/1999/xlink" width="17px" height="17px" xmlns="http://www.w3.org/2000/svg">
  <g transform="matrix(1 0 0 1 -465 -1040 )">
    <path d="M 12.506510416666668 9.9443359375  C 12.595052083333332 10.117730034722221  12.609809027777779 10.29665798611111  12.55078125 10.481119791666666  C 12.277777777777779 11.373914930555555  11.768663194444446 12.093315972222221  11.0234375 12.639322916666666  C 10.278211805555557 13.18532986111111  9.437065972222223 13.458333333333332  8.5 13.458333333333332  C 7.562934027777779 13.458333333333332  6.721788194444445 13.18532986111111  5.9765625 12.639322916666666  C 5.231336805555556 12.093315972222221  4.722222222222222 11.373914930555555  4.44921875 10.481119791666666  C 4.390190972222222 10.29665798611111  4.404947916666666 10.117730034722221  4.493489583333334 9.9443359375  C 4.58203125 9.770941840277775  4.722222222222222 9.654730902777775  4.9140625 9.595703125  C 5.098524305555556 9.536675347222221  5.277452256944445 9.551432291666666  5.450846354166666 9.639973958333334  C 5.624240451388889 9.728515625  5.740451388888889 9.868706597222221  5.799479166666666 10.060546875  C 5.983940972222223 10.650824652777775  6.3251953125 11.128580729166666  6.8232421875 11.493815104166666  C 7.3212890625 11.859049479166666  7.880208333333334 12.041666666666666  8.5 12.041666666666666  C 9.119791666666668 12.041666666666666  9.678710937500002 11.859049479166666  10.1767578125 11.493815104166666  C 10.674804687500002 11.128580729166666  11.016059027777779 10.650824652777775  11.200520833333332 10.060546875  C 11.259548611111112 9.868706597222221  11.377604166666668 9.728515625  11.5546875 9.639973958333334  C 11.731770833333332 9.551432291666666  11.912543402777779 9.536675347222221  12.097005208333332 9.595703125  C 12.28146701388889 9.654730902777775  12.41796875 9.770941840277775  12.506510416666668 9.9443359375  Z M 6.668294270833334 4.6650390625  C 6.944986979166666 4.941731770833333  7.083333333333334 5.2756076388888875  7.083333333333334 5.666666666666667  C 7.083333333333334 6.057725694444443  6.944986979166666 6.391601562499998  6.668294270833334 6.668294270833333  C 6.3916015625 6.944986979166667  6.057725694444445 7.083333333333333  5.666666666666666 7.083333333333333  C 5.275607638888889 7.083333333333333  4.941731770833334 6.944986979166667  4.6650390625 6.668294270833333  C 4.388346354166666 6.391601562499998  4.25 6.057725694444443  4.25 5.666666666666667  C 4.25 5.2756076388888875  4.388346354166666 4.941731770833333  4.6650390625 4.6650390625  C 4.941731770833334 4.388346354166667  5.275607638888889 4.25  5.666666666666666 4.25  C 6.057725694444445 4.25  6.3916015625 4.388346354166667  6.668294270833334 4.6650390625  Z M 12.3349609375 4.6650390625  C 12.611653645833332 4.941731770833333  12.75 5.2756076388888875  12.75 5.666666666666667  C 12.75 6.057725694444443  12.611653645833332 6.391601562499998  12.3349609375 6.668294270833333  C 12.058268229166668 6.944986979166667  11.724392361111112 7.083333333333333  11.333333333333332 7.083333333333333  C 10.942274305555557 7.083333333333333  10.6083984375 6.944986979166667  10.331705729166668 6.668294270833333  C 10.055013020833332 6.391601562499998  9.916666666666668 6.057725694444443  9.916666666666668 5.666666666666667  C 9.916666666666668 5.2756076388888875  10.055013020833332 4.941731770833333  10.331705729166668 4.6650390625  C 10.6083984375 4.388346354166667  10.942274305555557 4.25  11.333333333333332 4.25  C 11.724392361111112 4.25  12.058268229166668 4.388346354166667  12.3349609375 4.6650390625  Z M 15.018880208333332 11.250325520833334  C 15.395182291666668 10.3759765625  15.583333333333332 9.45920138888889  15.583333333333332 8.5  C 15.583333333333332 7.540798611111111  15.395182291666668 6.6240234375  15.018880208333332 5.749674479166667  C 14.642578125 4.875325520833333  14.138997395833332 4.122721354166667  13.508138020833332 3.4918619791666674  C 12.877278645833332 2.8610026041666674  12.124674479166668 2.357421875  11.250325520833332 1.9811197916666674  C 10.3759765625 1.6048177083333326  9.45920138888889 1.4166666666666674  8.5 1.4166666666666674  C 7.540798611111112 1.4166666666666674  6.6240234375 1.6048177083333326  5.749674479166666 1.9811197916666674  C 4.875325520833334 2.357421875  4.122721354166667 2.8610026041666674  3.491861979166667 3.4918619791666674  C 2.861002604166667 4.122721354166667  2.357421875 4.875325520833333  1.9811197916666665 5.749674479166667  C 1.6048177083333335 6.6240234375  1.4166666666666665 7.540798611111111  1.4166666666666665 8.5  C 1.4166666666666665 9.45920138888889  1.6048177083333335 10.3759765625  1.9811197916666665 11.250325520833334  C 2.357421875 12.124674479166666  2.861002604166667 12.877278645833332  3.491861979166667 13.508138020833332  C 4.122721354166667 14.138997395833332  4.875325520833334 14.642578125  5.749674479166666 15.018880208333332  C 6.6240234375 15.395182291666668  7.540798611111112 15.583333333333332  8.5 15.583333333333332  C 9.45920138888889 15.583333333333332  10.3759765625 15.395182291666668  11.250325520833332 15.018880208333332  C 12.124674479166668 14.642578125  12.877278645833332 14.138997395833332  13.508138020833332 13.508138020833332  C 14.138997395833332 12.877278645833332  14.642578125 12.124674479166666  15.018880208333332 11.250325520833334  Z M 15.860026041666668 4.2333984375  C 16.620008680555554 5.5356987847222205  17 6.957899305555554  17 8.5  C 17 10.042100694444445  16.620008680555554 11.464301215277775  15.860026041666668 12.7666015625  C 15.100043402777779 14.068901909722223  14.068901909722223 15.100043402777777  12.7666015625 15.860026041666668  C 11.464301215277779 16.620008680555557  10.042100694444445 17  8.5 17  C 6.957899305555556 17  5.535698784722222 16.620008680555557  4.2333984375 15.860026041666668  C 2.931098090277778 15.100043402777777  1.8999565972222223 14.068901909722223  1.1399739583333335 12.7666015625  C 0.3799913194444444 11.464301215277775  0 10.042100694444445  0 8.5  C 0 6.957899305555554  0.3799913194444444 5.5356987847222205  1.1399739583333335 4.2333984375  C 1.8999565972222223 2.9310980902777777  2.931098090277778 1.8999565972222205  4.2333984375 1.1399739583333326  C 5.535698784722222 0.379991319444443  6.957899305555556 0  8.5 0  C 10.042100694444445 0  11.464301215277779 0.379991319444443  12.7666015625 1.1399739583333326  C 14.068901909722223 1.8999565972222205  15.100043402777779 2.9310980902777777  15.860026041666668 4.2333984375  Z " fill-rule="nonzero" fill="#a1bdb3" stroke="none" transform="matrix(1 0 0 1 465 1040 )" />
  </g>
</svg>