<?xml version="1.0" encoding="utf-8"?>
<svg version="1.1" xmlns:xlink="http://www.w3.org/1999/xlink" width="26px" height="24px" xmlns="http://www.w3.org/2000/svg">
  <g transform="matrix(1 0 0 1 -1079 -821 )">
    <path d="M 25.125 8.60491493383743  C 25.708333333333336 8.695652173913045  26 8.927536231884059  26 9.300567107750474  C 26 9.522369250157528  25.864583333333336 9.764335223692498  25.59375 10.026465028355387  L 19.921875 15.379962192816635  L 21.265625 22.9413988657845  C 21.276041666666668 23.0119722747322  21.28125 23.112791430371768  21.28125 23.243856332703213  C 21.28125 23.455576559546316  21.2265625 23.634530560806553  21.1171875 23.78071833648393  C 21.0078125 23.926906112161312  20.848958333333336 24  20.640625 24  C 20.442708333333336 24  20.234375 23.939508506616257  20.015625 23.818525519848773  L 13 20.24952741020794  L 5.984375 23.818525519848773  C 5.755208333333334 23.939508506616257  5.546875 24  5.359375 24  C 5.140625 24  4.9765625 23.926906112161312  4.8671875 23.78071833648393  C 4.7578125 23.634530560806553  4.703125 23.455576559546316  4.703125 23.243856332703213  C 4.703125 23.18336483931947  4.713541666666667 23.082545683679896  4.734375 22.9413988657845  L 6.078125 15.379962192816635  L 0.390625 10.026465028355387  C 0.13020833333333331 9.754253308128543  0 9.512287334593573  0 9.300567107750474  C 0 8.927536231884059  0.29166666666666663 8.695652173913045  0.875 8.60491493383743  L 8.71875 7.50094517958412  L 12.234375 0.6200378071833637  C 12.432291666666668 0.20667926906112033  12.6875 0  13 0  C 13.312499999999998 0  13.567708333333334 0.20667926906112033  13.765625 0.6200378071833637  L 17.28125 7.50094517958412  L 25.125 8.60491493383743  Z " fill-rule="nonzero" fill="#a1bdb3" stroke="none" transform="matrix(1 0 0 1 1079 821 )" />
  </g>
</svg>