<?xml version="1.0" encoding="utf-8"?>
<svg version="1.1" xmlns:xlink="http://www.w3.org/1999/xlink" width="17px" height="17px" xmlns="http://www.w3.org/2000/svg">
  <g transform="matrix(1 0 0 1 -1182 -438 )">
    <path d="M 12.119140625 2.1858723958333326  C 10.996558779761905 1.673068576388888  9.790178571428571 1.4166666666666674  8.5 1.4166666666666674  C 7.209821428571429 1.4166666666666674  6.003441220238096 1.673068576388888  4.880859375 2.1858723958333326  C 3.7582775297619047 2.6986762152777777  2.8665364583333335 3.3904079861111103  2.2056361607142856 4.261067708333333  C 1.5447358630952381 5.131727430555554  1.2142857142857142 6.0724826388888875  1.2142857142857142 7.083333333333333  C 1.2142857142857142 7.909722222222222  1.4403831845238098 8.697374131944445  1.892578125 9.4462890625  C 2.3447730654761907 10.195203993055555  2.981956845238096 10.842664930555555  3.8041294642857144 11.388671875  L 4.629464285714286 11.942057291666666  L 4.373325892857143 13.004557291666668  C 4.221540178571429 13.67599826388889  4.000186011904762 14.310546875  3.709263392857143 14.908203125  C 4.670572916666667 14.443359375  5.540178571428571 13.8125  6.318080357142857 13.015625  L 6.726004464285714 12.595052083333334  L 7.266741071428571 12.661458333333334  C 7.703125 12.72048611111111  8.11421130952381 12.75  8.5 12.75  C 9.790178571428571 12.75  10.996558779761905 12.493598090277775  12.119140625 11.980794270833334  C 13.241722470238097 11.467990451388886  14.133463541666668 10.776258680555555  14.794363839285714 9.905598958333334  C 15.455264136904763 9.03493923611111  15.785714285714286 8.094184027777777  15.785714285714286 7.083333333333333  C 15.785714285714286 6.0724826388888875  15.455264136904763 5.131727430555554  14.794363839285714 4.261067708333333  C 14.133463541666668 3.3904079861111103  13.241722470238097 2.6986762152777777  12.119140625 2.1858723958333326  Z M 15.861607142857142 3.5250651041666674  C 16.620535714285715 4.613389756944443  17 5.799479166666667  17 7.083333333333333  C 17 8.3671875  16.620535714285715 9.553276909722221  15.861607142857142 10.6416015625  C 15.102678571428571 11.729926215277775  14.071800595238097 12.589518229166666  12.768973214285714 13.220377604166668  C 11.466145833333334 13.851236979166668  10.043154761904763 14.166666666666668  8.5 14.166666666666668  C 8.057291666666668 14.166666666666668  7.598772321428571 14.137152777777777  7.124441964285714 14.078125  C 5.872209821428571 15.36935763888889  4.417596726190477 16.26215277777778  2.7606026785714284 16.756510416666668  C 2.450706845238096 16.85980902777778  2.0902157738095237 16.94097222222222  1.6791294642857142 17  L 1.6316964285714286 17  C 1.5368303571428572 17  1.4514508928571428 16.961263020833332  1.3755580357142858 16.8837890625  C 1.2996651785714286 16.806315104166668  1.2490699404761907 16.70486111111111  1.2237723214285714 16.579427083333332  L 1.2237723214285714 16.568359375  C 1.2047991071428574 16.53884548611111  1.203218005952381 16.49457465277778  1.2190290178571428 16.435546875  C 1.2348400297619049 16.37651909722222  1.2411644345238098 16.33962673611111  1.2380022321428572 16.324869791666668  C 1.2348400297619049 16.31011284722222  1.2490699404761907 16.275065104166668  1.2806919642857142 16.2197265625  L 1.3376116071428572 16.1201171875  C 1.3376116071428572 16.1201171875  1.359747023809524 16.088758680555557  1.4040178571428572 16.026041666666668  C 1.4482886904761907 15.963324652777777  1.4735863095238098 15.930121527777777  1.4799107142857142 15.926432291666668  C 1.524181547619048 15.86740451388889  1.6222098214285714 15.740125868055557  1.7739955357142858 15.544596354166668  C 1.92578125 15.349066840277777  2.034877232142857 15.208875868055557  2.101283482142857 15.1240234375  C 2.167689732142857 15.039171006944443  2.265718005952381 14.893446180555557  2.3953683035714284 14.686848958333332  C 2.5250186011904763 14.48025173611111  2.6277901785714284 14.292100694444443  2.7036830357142856 14.122395833333332  C 2.779575892857143 13.952690972222223  2.864955357142857 13.735026041666668  2.9598214285714284 13.469401041666668  C 3.0546875 13.203776041666668  3.136904761904762 12.923394097222223  3.2064732142857144 12.628255208333334  C 2.213541666666667 11.971571180555555  1.4308965773809523 11.15993923611111  0.8585379464285714 10.193359375  C 0.28617931547619047 9.226779513888886  0 8.190104166666668  0 7.083333333333333  C 0 5.799479166666667  0.3794642857142857 4.613389756944443  1.1383928571428572 3.5250651041666674  C 1.8973214285714288 2.436740451388888  2.9281994047619047 1.5771484375  4.231026785714286 0.9462890625  C 5.533854166666667 0.3154296875  6.956845238095239 0  8.5 0  C 10.043154761904763 0  11.466145833333334 0.3154296875  12.768973214285714 0.9462890625  C 14.071800595238097 1.5771484375  15.102678571428571 2.436740451388888  15.861607142857142 3.5250651041666674  Z " fill-rule="nonzero" fill="#a1bdb3" stroke="none" transform="matrix(1 0 0 1 1182 438 )" />
  </g>
</svg>