<?xml version="1.0" encoding="utf-8"?>
<svg version="1.1" xmlns:xlink="http://www.w3.org/1999/xlink" width="170px" height="170px" xmlns="http://www.w3.org/2000/svg">
  <g transform="matrix(1 0 0 1 -313 -502 )">
    <path d="M 398 507  C 442.8 507  478 542.2  478 587  C 478 631.8  442.8 667  398 667  C 353.2 667  318 631.8  318 587  C 318 542.2  353.2 507  398 507  Z " fill-rule="nonzero" fill="#ffffff" stroke="none" />
    <path d="M 398 505  C 443.92 505  480 541.08  480 587  C 480 632.92  443.92 669  398 669  C 352.08 669  316 632.92  316 587  C 316 541.08  352.08 505  398 505  Z " stroke-width="6" stroke="#d1e6e1" fill="none" />
  </g>
</svg>